<svg width="0" height="0" class="hidden">
  <symbol xmlns="http://www.w3.org/2000/svg" stroke-width="1.5" stroke="#00abfb" fill="none" stroke-linecap="round" stroke-linejoin="round" viewBox="0 0 24 24" id="facebook">
    <path stroke="none" d="M0 0h24v24H0z" fill="none"></path>
    <path d="M7 10v4h3v7h4v-7h3l1 -4h-4v-2a1 1 0 0 1 1 -1h3v-4h-3a5 5 0 0 0 -5 5v2h-3"></path>
  </symbol>
  <symbol xmlns="http://www.w3.org/2000/svg" stroke-width="1.5" stroke="#000000" fill="none" stroke-linecap="round" stroke-linejoin="round" viewBox="0 0 24 24" id="comment">
    <path stroke="none" d="M0 0h24v24H0z" fill="none"></path>
    <path d="M3 20l1.3 -3.9a9 8 0 1 1 3.4 2.9l-4.7 1"></path>
    <line x1="12" y1="12" x2="12" y2="12.01"></line>
    <line x1="8" y1="12" x2="8" y2="12.01"></line>
    <line x1="16" y1="12" x2="16" y2="12.01"></line>
  </symbol>
  <symbol xmlns="http://www.w3.org/2000/svg" stroke-width="1.5" stroke="#ffffff" fill="none" stroke-linecap="round" stroke-linejoin="round" viewBox="0 0 24 24" id="film">
    <path stroke="none" d="M0 0h24v24H0z" fill="none"></path>
    <rect x="3" y="7" width="18" height="13" rx="2"></rect>
    <polyline points="16 3 12 7 8 3"></polyline>
  </symbol>
  <symbol xmlns="http://www.w3.org/2000/svg" stroke-width="1.5" stroke="#ffffff" fill="none" stroke-linecap="round" stroke-linejoin="round" viewBox="0 0 24 24" id="home">
    <path stroke="none" d="M0 0h24v24H0z" fill="none"></path>
    <polyline points="5 12 3 12 12 3 21 12 19 12"></polyline>
    <path d="M5 12v7a2 2 0 0 0 2 2h10a2 2 0 0 0 2 -2v-7"></path>
    <path d="M9 21v-6a2 2 0 0 1 2 -2h2a2 2 0 0 1 2 2v6"></path>
  </symbol>
  <symbol xmlns="http://www.w3.org/2000/svg" stroke-width="1.5" stroke="#000000" fill="none" stroke-linecap="round" stroke-linejoin="round" viewBox="0 0 24 24" id="like">
    <path stroke="none" d="M0 0h24v24H0z" fill="none"></path>
    <path d="M7 11v8a1 1 0 0 1 -1 1h-2a1 1 0 0 1 -1 -1v-7a1 1 0 0 1 1 -1h3a4 4 0 0 0 4 -4v-1a2 2 0 0 1 4 0v5h3a2 2 0 0 1 2 2l-1 5a2 3 0 0 1 -2 2h-7a3 3 0 0 1 -3 -3"></path>
  </symbol>
  <symbol xmlns="http://www.w3.org/2000/svg" stroke-width="1.5" stroke="#ffffff" fill="none" stroke-linecap="round" stroke-linejoin="round" viewBox="0 0 24 24" id="login">
    <path stroke="none" d="M0 0h24v24H0z" fill="none"></path>
    <path d="M14 8v-2a2 2 0 0 0 -2 -2h-7a2 2 0 0 0 -2 2v12a2 2 0 0 0 2 2h7a2 2 0 0 0 2 -2v-2"></path>
    <path d="M20 12h-13l3 -3m0 6l-3 -3"></path>
  </symbol>
  <symbol xmlns="http://www.w3.org/2000/svg" stroke-width="1.5" stroke="#ffffff" fill="none" stroke-linecap="round" stroke-linejoin="round" viewBox="0 0 24 24" id="phone">
    <path stroke="none" d="M0 0h24v24H0z" fill="none"></path>
    <rect x="7" y="4" width="10" height="16" rx="1"></rect>
    <line x1="11" y1="5" x2="13" y2="5"></line>
    <line x1="12" y1="17" x2="12" y2="17.01"></line>
  </symbol>
  <symbol xmlns="http://www.w3.org/2000/svg" stroke-width="1.5" stroke="#00bfd8" fill="none" stroke-linecap="round" stroke-linejoin="round" viewBox="0 0 24 24" id="posta">
    <path stroke="none" d="M0 0h24v24H0z" fill="none"></path>
    <rect x="3" y="5" width="18" height="14" rx="2"></rect>
    <polyline points="3 7 12 13 21 7"></polyline>
  </symbol>
  <symbol xmlns="http://www.w3.org/2000/svg" stroke-width="1.5" stroke="#ffffff" fill="none" stroke-linecap="round" stroke-linejoin="round" viewBox="0 0 24 24" id="serietv">
    <path stroke="none" d="M0 0h24v24H0z" fill="none"></path>
    <rect x="4" y="4" width="16" height="16" rx="2"></rect>
    <line x1="8" y1="4" x2="8" y2="20"></line>
    <line x1="16" y1="4" x2="16" y2="20"></line>
    <line x1="4" y1="8" x2="8" y2="8"></line>
    <line x1="4" y1="16" x2="8" y2="16"></line>
    <line x1="4" y1="12" x2="20" y2="12"></line>
    <line x1="16" y1="8" x2="20" y2="8"></line>
    <line x1="16" y1="16" x2="20" y2="16"></line>
  </symbol>
  <symbol xmlns="http://www.w3.org/2000/svg" stroke-width="1.5" stroke="#008000" fill="none" stroke-linecap="round" stroke-linejoin="round" viewBox="0 0 24 24" id="whatsapp">
    <path stroke="none" d="M0 0h24v24H0z" fill="none"></path>
    <path d="M3 21l1.65 -3.8a9 9 0 1 1 3.4 2.9l-5.05 .9"></path>
    <path d="M9 10a0.5 .5 0 0 0 1 0v-1a0.5 .5 0 0 0 -1 0v1a5 5 0 0 0 5 5h1a0.5 .5 0 0 0 0 -1h-1a0.5 .5 0 0 0 0 1"></path>
  </symbol>
  <symbol xmlns="http://www.w3.org/2000/svg" stroke-width="1.5" stroke="#000000" fill="none" stroke-linecap="round" stroke-linejoin="round" viewBox="0 0 24 24" id="share">
    <path stroke="none" d="M0 0h24v24H0z" fill="none"></path>
    <circle cx="6" cy="12" r="3"></circle>
    <circle cx="18" cy="6" r="3"></circle>
    <circle cx="18" cy="18" r="3"></circle>
    <line x1="8.7" y1="10.7" x2="15.3" y2="7.3"></line>
    <line x1="8.7" y1="13.3" x2="15.3" y2="16.7"></line>
  </symbol>
  <symbol xmlns="http://www.w3.org/2000/svg" stroke-width="1.5" stroke="#000000" fill="none" stroke-linecap="round" stroke-linejoin="round" viewBox="0 0 24 24" id="youtube">
    <path stroke="none" d="M0 0h24v24H0z" fill="none"></path>
    <rect x="3" y="5" width="18" height="14" rx="4"></rect>
    <path d="M10 9l5 3l-5 3z"></path>
  </symbol>
</svg>